<svg xmlns="http://www.w3.org/2000/svg" xmlns:xlink="http://www.w3.org/1999/xlink" width="559" zoomAndPan="magnify" viewBox="0 0 419.25 595.499982" height="793" preserveAspectRatio="xMidYMid meet" version="1.0"><defs><clipPath id="a5b9d59995"><path d="M 29.195312 12.496094 L 389.300781 12.496094 L 389.300781 582.226562 L 29.195312 582.226562 Z M 29.195312 12.496094 " clip-rule="nonzero"/></clipPath></defs><path fill="#048d4b" d="M 53.722656 175.109375 L 361.0625 175.109375 L 317.644531 550.933594 L 80.960938 550.933594 Z M 333.828125 85.425781 L 53.722656 85.425781 L 53.722656 135.910156 L 369.496094 135.910156 L 369.496094 120.980469 C 369.496094 101.378906 353.542969 85.425781 333.828125 85.425781 Z M 333.828125 85.425781 " fill-opacity="1" fill-rule="nonzero"/><g clip-path="url(#a5b9d59995)"><path fill="#ffde32" d="M 271.605469 85.425781 L 60.902344 85.425781 C 60.902344 45.199219 93.496094 12.496094 133.835938 12.496094 L 271.722656 12.496094 L 271.722656 85.425781 Z M 112.527344 433.675781 C 71.5 433.675781 38.226562 466.949219 38.226562 507.972656 C 38.226562 548.996094 71.5 582.273438 112.527344 582.273438 C 153.550781 582.273438 186.824219 548.996094 186.824219 507.972656 C 186.824219 466.949219 153.550781 433.675781 112.527344 433.675781 Z M 389.324219 135.910156 L 29.453125 135.910156 L 29.453125 175.109375 L 389.324219 175.109375 Z M 389.324219 135.910156 " fill-opacity="1" fill-rule="nonzero"/></g><path fill="#048d4b" d="M 88.367188 72.207031 C 86.773438 72.207031 85.519531 70.953125 85.519531 69.359375 C 85.519531 47.707031 103.179688 30.042969 124.832031 30.042969 C 126.429688 30.042969 127.679688 31.296875 127.679688 32.894531 C 127.679688 34.488281 126.429688 35.742188 124.832031 35.742188 C 106.257812 35.742188 91.214844 50.785156 91.214844 69.359375 C 91.101562 70.953125 89.847656 72.207031 88.367188 72.207031 Z M 112.527344 475.839844 C 94.75 475.839844 80.277344 490.3125 80.277344 508.089844 C 80.277344 525.863281 94.75 540.335938 112.527344 540.335938 C 130.300781 540.335938 144.773438 525.863281 144.773438 508.089844 C 144.773438 490.3125 130.300781 475.839844 112.527344 475.839844 Z M 112.527344 475.839844 " fill-opacity="1" fill-rule="nonzero"/></svg>